<svg width="802" height="109" viewBox="0 0 802 109" fill="none" xmlns="http://www.w3.org/2000/svg">
<path d="M164.688 86V35.408H176.208L176.4 47.888L173.232 48.656C174.256 46.224 175.792 43.952 177.84 41.84C179.952 39.664 182.48 37.872 185.424 36.464C188.432 35.056 191.728 34.352 195.312 34.352C199.92 34.352 203.76 35.248 206.832 37.04C209.968 38.768 212.336 41.264 213.936 44.528C215.536 47.728 216.336 51.44 216.336 55.664V86H204.432V57.296C204.432 54.672 203.888 52.432 202.8 50.576C201.712 48.656 200.208 47.216 198.288 46.256C196.368 45.232 194.128 44.752 191.568 44.816C189.328 44.816 187.28 45.2 185.424 45.968C183.568 46.736 181.968 47.76 180.624 49.04C179.28 50.256 178.256 51.632 177.552 53.168C176.848 54.64 176.496 56.144 176.496 57.68V86H170.64C169.04 86 167.728 86 166.704 86C165.744 86 165.072 86 164.688 86ZM269.889 86.96C263.745 86.96 258.305 85.84 253.569 83.6C248.833 81.36 245.153 78.288 242.529 74.384C239.905 70.48 238.593 66.064 238.593 61.136C238.593 57.04 239.361 53.36 240.897 50.096C242.433 46.768 244.577 43.952 247.329 41.648C250.081 39.28 253.281 37.456 256.929 36.176C260.641 34.896 264.577 34.256 268.737 34.256C272.577 34.256 276.193 34.896 279.585 36.176C282.977 37.392 285.921 39.12 288.417 41.36C290.977 43.536 292.929 46.16 294.273 49.232C295.617 52.24 296.257 55.568 296.193 59.216L296.097 63.92H247.617L245.409 55.568H286.209L284.673 56.912V54.8C284.417 52.752 283.521 50.992 281.985 49.52C280.449 47.984 278.529 46.8 276.225 45.968C273.921 45.072 271.425 44.624 268.737 44.624C265.089 44.624 261.825 45.168 258.945 46.256C256.129 47.344 253.921 49.072 252.321 51.44C250.785 53.744 250.017 56.688 250.017 60.272C250.017 63.472 250.913 66.288 252.705 68.72C254.497 71.152 257.025 73.04 260.289 74.384C263.553 75.728 267.329 76.4 271.617 76.4C275.521 76.4 278.817 75.888 281.505 74.864C284.257 73.84 286.625 72.592 288.609 71.12L294.081 79.376C292.161 80.848 289.889 82.16 287.265 83.312C284.705 84.4 281.921 85.296 278.913 86C275.905 86.64 272.897 86.96 269.889 86.96ZM344.702 86.96C338.75 86.96 333.47 85.84 328.862 83.6C324.254 81.36 320.606 78.256 317.918 74.288C315.294 70.256 313.982 65.712 313.982 60.656C313.982 55.536 315.294 50.992 317.918 47.024C320.606 43.056 324.254 39.952 328.862 37.712C333.47 35.472 338.75 34.352 344.702 34.352C350.654 34.352 355.902 35.472 360.446 37.712C365.054 39.952 368.67 43.056 371.294 47.024C373.918 50.992 375.23 55.536 375.23 60.656C375.23 65.712 373.918 70.256 371.294 74.288C368.67 78.256 365.054 81.36 360.446 83.6C355.902 85.84 350.654 86.96 344.702 86.96ZM344.702 76.496C348.222 76.496 351.39 75.824 354.206 74.48C357.022 73.072 359.262 71.184 360.926 68.816C362.59 66.448 363.358 63.728 363.23 60.656C363.358 57.52 362.59 54.768 360.926 52.4C359.262 50.032 357.022 48.176 354.206 46.832C351.39 45.488 348.222 44.816 344.702 44.816C341.182 44.816 337.982 45.488 335.102 46.832C332.286 48.176 330.046 50.064 328.382 52.496C326.782 54.864 326.014 57.584 326.078 60.656C326.014 63.728 326.782 66.448 328.382 68.816C330.046 71.184 332.286 73.072 335.102 74.48C337.982 75.824 341.182 76.496 344.702 76.496ZM398.501 86V35.408H410.021L410.213 47.888L407.045 48.656C408.069 46.224 409.605 43.952 411.653 41.84C413.765 39.664 416.293 37.872 419.237 36.464C422.245 35.056 425.541 34.352 429.125 34.352C433.733 34.352 437.573 35.248 440.645 37.04C443.781 38.768 446.149 41.264 447.749 44.528C449.349 47.728 450.149 51.44 450.149 55.664V86H438.245V57.296C438.245 54.672 437.701 52.432 436.613 50.576C435.525 48.656 434.021 47.216 432.101 46.256C430.181 45.232 427.941 44.752 425.381 44.816C423.141 44.816 421.093 45.2 419.237 45.968C417.381 46.736 415.781 47.76 414.437 49.04C413.093 50.256 412.069 51.632 411.365 53.168C410.661 54.64 410.309 56.144 410.309 57.68V86H404.453C402.853 86 401.541 86 400.517 86C399.557 86 398.885 86 398.501 86ZM509.75 86.96C506.87 86.96 504.118 86.576 501.494 85.808C498.87 85.04 496.534 84.048 494.486 82.832C492.502 81.552 490.838 80.176 489.494 78.704C488.214 77.168 487.382 75.728 486.998 74.384L490.838 73.712L490.55 85.808H479.126V14.96H490.934V47.12L487.766 46.736C488.086 45.264 488.886 43.824 490.166 42.416C491.446 41.008 493.078 39.696 495.062 38.48C497.11 37.264 499.382 36.272 501.878 35.504C504.438 34.736 507.094 34.352 509.846 34.352C515.03 34.352 519.638 35.472 523.67 37.712C527.766 39.952 530.998 43.056 533.366 47.024C535.798 50.928 537.014 55.44 537.014 60.56C537.014 65.68 535.83 70.224 533.462 74.192C531.094 78.16 527.862 81.296 523.766 83.6C519.67 85.84 514.998 86.96 509.75 86.96ZM507.734 76.496C511.19 76.496 514.262 75.824 516.95 74.48C519.638 73.072 521.718 71.184 523.19 68.816C524.726 66.384 525.494 63.632 525.494 60.56C525.494 57.488 524.726 54.8 523.19 52.496C521.718 50.128 519.638 48.272 516.95 46.928C514.326 45.584 511.254 44.912 507.734 44.912C504.214 44.912 501.11 45.584 498.422 46.928C495.798 48.272 493.718 50.128 492.182 52.496C490.646 54.8 489.878 57.488 489.878 60.56C489.878 63.632 490.646 66.384 492.182 68.816C493.718 71.184 495.798 73.072 498.422 74.48C501.11 75.824 504.214 76.496 507.734 76.496ZM559.835 86V14.96H571.739V86H559.835ZM624.358 86.96C618.406 86.96 613.126 85.84 608.518 83.6C603.91 81.36 600.262 78.256 597.574 74.288C594.95 70.256 593.638 65.712 593.638 60.656C593.638 55.536 594.95 50.992 597.574 47.024C600.262 43.056 603.91 39.952 608.518 37.712C613.126 35.472 618.406 34.352 624.358 34.352C630.31 34.352 635.558 35.472 640.102 37.712C644.71 39.952 648.326 43.056 650.95 47.024C653.574 50.992 654.886 55.536 654.886 60.656C654.886 65.712 653.574 70.256 650.95 74.288C648.326 78.256 644.71 81.36 640.102 83.6C635.558 85.84 630.31 86.96 624.358 86.96ZM624.358 76.496C627.878 76.496 631.046 75.824 633.862 74.48C636.678 73.072 638.918 71.184 640.582 68.816C642.246 66.448 643.014 63.728 642.886 60.656C643.014 57.52 642.246 54.768 640.582 52.4C638.918 50.032 636.678 48.176 633.862 46.832C631.046 45.488 627.878 44.816 624.358 44.816C620.838 44.816 617.638 45.488 614.758 46.832C611.942 48.176 609.702 50.064 608.038 52.496C606.438 54.864 605.67 57.584 605.734 60.656C605.67 63.728 606.438 66.448 608.038 68.816C609.702 71.184 611.942 73.072 614.758 74.48C617.638 75.824 620.838 76.496 624.358 76.496ZM708.781 86.96C705.901 86.96 703.149 86.576 700.525 85.808C697.901 85.04 695.565 84.048 693.517 82.832C691.533 81.552 689.869 80.176 688.525 78.704C687.245 77.168 686.413 75.728 686.029 74.384L689.869 73.712L689.581 85.808H678.157V14.96H689.965V47.12L686.797 46.736C687.117 45.264 687.917 43.824 689.197 42.416C690.477 41.008 692.109 39.696 694.093 38.48C696.141 37.264 698.413 36.272 700.909 35.504C703.469 34.736 706.125 34.352 708.877 34.352C714.061 34.352 718.669 35.472 722.701 37.712C726.797 39.952 730.029 43.056 732.397 47.024C734.829 50.928 736.045 55.44 736.045 60.56C736.045 65.68 734.861 70.224 732.493 74.192C730.125 78.16 726.893 81.296 722.797 83.6C718.701 85.84 714.029 86.96 708.781 86.96ZM706.765 76.496C710.221 76.496 713.293 75.824 715.981 74.48C718.669 73.072 720.749 71.184 722.221 68.816C723.757 66.384 724.525 63.632 724.525 60.56C724.525 57.488 723.757 54.8 722.221 52.496C720.749 50.128 718.669 48.272 715.981 46.928C713.357 45.584 710.285 44.912 706.765 44.912C703.245 44.912 700.141 45.584 697.453 46.928C694.829 48.272 692.749 50.128 691.213 52.496C689.677 54.8 688.909 57.488 688.909 60.56C688.909 63.632 689.677 66.384 691.213 68.816C692.749 71.184 694.829 73.072 697.453 74.48C700.141 75.824 703.245 76.496 706.765 76.496ZM778.067 86.96C772.563 86.96 767.603 86.224 763.187 84.752C758.835 83.216 755.251 80.848 752.435 77.648L760.019 70.832C762.259 73.072 764.915 74.768 767.987 75.92C771.059 77.072 774.419 77.648 778.067 77.648C779.411 77.648 780.723 77.584 782.003 77.456C783.347 77.264 784.563 76.944 785.651 76.496C786.803 75.984 787.699 75.376 788.339 74.672C789.043 73.968 789.395 73.104 789.395 72.08C789.395 70.352 788.243 69.04 785.939 68.144C784.723 67.76 783.187 67.344 781.331 66.896C779.539 66.448 777.523 66 775.283 65.552C771.507 64.784 768.179 63.952 765.299 63.056C762.483 62.096 760.147 60.88 758.291 59.408C756.819 58.192 755.699 56.752 754.931 55.088C754.163 53.424 753.779 51.536 753.779 49.424C753.779 47.056 754.355 44.976 755.507 43.184C756.723 41.328 758.387 39.728 760.499 38.384C762.611 37.04 765.043 36.048 767.795 35.408C770.611 34.704 773.619 34.352 776.819 34.352C779.699 34.352 782.611 34.64 785.555 35.216C788.499 35.792 791.283 36.688 793.906 37.904C796.531 39.056 798.771 40.528 800.627 42.32L794.483 49.808C792.947 48.656 791.187 47.6 789.203 46.64C787.219 45.68 785.139 44.912 782.963 44.336C780.787 43.76 778.707 43.472 776.723 43.472C775.315 43.472 773.939 43.568 772.595 43.76C771.315 43.952 770.099 44.272 768.947 44.72C767.859 45.104 766.995 45.648 766.355 46.352C765.715 47.056 765.395 47.888 765.395 48.848C765.459 49.488 765.683 50.128 766.067 50.768C766.451 51.344 766.995 51.856 767.699 52.304C768.787 53.072 770.323 53.744 772.307 54.32C774.355 54.832 776.723 55.344 779.411 55.856C783.187 56.56 786.515 57.392 789.395 58.352C792.275 59.248 794.611 60.4 796.403 61.808C797.939 62.896 799.091 64.208 799.859 65.744C800.627 67.216 801.01 68.912 801.01 70.832C801.01 74.16 799.987 77.04 797.939 79.472C795.955 81.84 793.203 83.696 789.683 85.04C786.227 86.32 782.355 86.96 778.067 86.96Z" fill="white"/>
<path d="M76.5431 15.0056C84.8053 14.7893 92.2772 20.845 94.0015 28.7029C95.654 36.4888 91.4869 46.0769 92.7083 56.3859C93.9297 66.695 100.539 77.6528 99.9647 87.313C99.3181 96.9732 91.4869 105.336 82.0034 103.822C72.5198 102.308 61.3838 90.9176 51.541 88.6107C41.77 86.3037 33.2923 93.0803 23.0184 95.0268C12.7445 97.0453 0.674539 94.1617 0.0279313 86.8084C-0.618676 79.4551 10.1581 67.56 11.9542 56.7464C13.8222 45.8606 6.63769 36.0562 7.71537 29.4238C8.79305 22.7194 17.9892 19.1869 26.467 19.5474C34.8729 19.9078 42.5603 24.2333 50.8944 23.0798C59.2284 21.9264 68.2809 15.294 76.5431 15.0056Z" fill="white"/>
</svg>
